<?xml version="1.0" standalone="no"?>
<!DOCTYPE svg PUBLIC "-//W3C//DTD SVG 20010904//EN"
 "http://www.w3.org/TR/2001/REC-SVG-20010904/DTD/svg10.dtd">
<svg version="1.0" xmlns="http://www.w3.org/2000/svg"
 width="1024.000000pt" height="1024.000000pt" viewBox="0 0 1024.000000 1024.000000"
 preserveAspectRatio="xMidYMid meet">
<metadata>
Created by potrace 1.11, written by Peter Selinger 2001-2013
</metadata>
<g transform="translate(0.000000,1024.000000) scale(0.100000,-0.100000)"
fill="#000000" stroke="none">
<path d="M4065 9463 c-46 -10 -156 -56 -197 -83 -65 -43 -126 -113 -246 -283
-34 -48 -62 -92 -62 -97 0 -6 -4 -10 -10 -10 -5 0 -10 -5 -10 -11 0 -6 -10
-25 -22 -42 -75 -104 -263 -483 -323 -652 -10 -27 -22 -54 -25 -60 -7 -10 -81
-229 -84 -250 -1 -5 -4 -14 -7 -20 -3 -5 -12 -31 -18 -57 -13 -45 -15 -46 -60
-54 -25 -4 -50 -8 -56 -10 -5 -1 -26 -5 -45 -8 -19 -4 -118 -27 -220 -52 -545
-135 -809 -287 -816 -472 -4 -129 99 -231 347 -341 106 -47 333 -119 457 -146
9 -2 53 -13 97 -24 44 -11 95 -23 113 -26 19 -3 39 -7 45 -8 20 -4 24 -16 26
-90 1 -40 4 -83 5 -97 40 -303 94 -495 209 -730 33 -69 66 -137 73 -151 l12
-26 -507 0 c-444 0 -513 -2 -557 -17 -105 -34 -177 -126 -179 -229 -2 -47 5
-77 35 -150 65 -159 144 -352 279 -676 72 -172 128 -317 126 -321 -3 -5 -38
-30 -78 -56 -193 -127 -422 -337 -547 -503 -14 -18 -30 -38 -36 -44 -28 -31
-156 -233 -203 -321 -103 -193 -183 -410 -216 -584 -2 -13 -6 -31 -9 -40 -10
-35 -23 -142 -33 -272 -8 -117 -9 -924 -1 -1000 24 -214 95 -343 287 -520 48
-45 166 -103 271 -133 l75 -22 3165 0 3165 0 80 23 c306 89 515 334 553 647
14 124 5 1040 -12 1131 -2 10 -7 46 -10 79 -12 104 -83 362 -126 460 -10 22
-31 69 -46 105 -15 36 -38 82 -51 102 -13 21 -23 41 -23 46 0 20 -198 318
-245 368 -5 6 -34 38 -63 72 -71 81 -194 200 -262 253 -30 24 -57 46 -60 49
-3 4 -43 33 -90 65 -47 32 -87 59 -88 61 -4 3 6 32 88 239 28 72 87 225 131
340 44 116 84 219 90 230 18 41 82 212 98 265 41 135 -35 286 -169 334 -46 17
-95 18 -569 19 -472 0 -519 1 -512 16 3 9 28 58 54 108 143 280 216 546 233
848 6 98 11 116 36 122 17 3 97 21 123 27 11 2 40 9 65 16 25 7 56 14 70 16
14 3 34 8 45 11 11 4 25 8 30 9 55 11 252 75 340 111 251 102 375 212 381 337
9 178 -216 327 -696 460 -52 15 -106 29 -120 32 -48 11 -115 25 -140 30 -13 3
-62 14 -107 25 -46 10 -92 19 -102 19 -17 0 -24 13 -37 65 -6 27 -79 246 -94
285 -10 25 -35 88 -56 140 -141 360 -419 823 -593 989 -102 98 -249 148 -404
138 -101 -6 -114 -11 -464 -184 -298 -148 -343 -163 -463 -158 -106 5 -145 19
-424 158 -349 174 -380 186 -500 185 -50 -1 -100 -3 -111 -5z m-485 -2807 c36
-4 76 -8 90 -11 14 -2 50 -7 80 -10 30 -3 69 -7 85 -9 17 -3 68 -7 115 -11 90
-7 110 -9 285 -20 61 -4 128 -8 150 -10 278 -23 1357 -23 1495 0 14 2 81 6
150 10 69 3 136 7 150 9 24 4 156 17 210 21 50 4 166 16 190 21 14 2 52 7 84
10 33 3 64 6 70 7 7 1 12 -33 14 -94 l3 -96 -31 -13 c-31 -13 -62 -49 -73 -85
-20 -71 -96 -254 -149 -359 -68 -136 -159 -234 -264 -285 -73 -36 -69 -34
-164 -56 -69 -16 -177 -13 -227 6 -15 6 -28 10 -28 9 0 -8 -78 22 -154 59
-168 83 -292 232 -372 448 -41 111 -80 143 -172 143 -60 0 -108 -26 -133 -70
-23 -43 -54 -113 -54 -124 0 -15 -106 -198 -132 -227 -104 -118 -157 -161
-262 -210 -73 -34 -138 -47 -222 -43 -48 2 -130 12 -154 19 -54 15 -99 31
-115 42 -11 7 -25 13 -32 13 -16 0 -143 79 -143 88 0 4 -13 21 -28 37 -15 17
-31 37 -35 45 -4 8 -16 29 -26 45 -11 17 -34 59 -51 95 -17 36 -36 74 -42 85
-16 29 -98 247 -98 261 0 14 -75 84 -90 84 -6 0 -10 36 -10 88 0 84 4 107 19
98 3 -3 35 -7 71 -10z m61 -2111 c10 -5 70 -44 134 -85 210 -136 309 -200 390
-251 44 -28 124 -79 178 -114 l97 -63 203 -338 c192 -321 202 -341 195 -374
-10 -41 -10 -41 -38 -145 -12 -44 -23 -87 -25 -95 -2 -8 -27 -100 -55 -205
-28 -104 -53 -197 -55 -205 -4 -20 -51 -196 -128 -485 -61 -228 -79 -297 -78
-302 0 -2 -5 -17 -10 -35 -6 -18 -41 -146 -77 -284 l-67 -252 -43 202 c-24
110 -50 228 -57 261 -22 95 -66 298 -71 325 -5 25 -116 535 -180 825 -20 88
-38 169 -40 180 -2 11 -15 72 -29 135 -20 90 -88 399 -110 501 -2 9 -13 61
-25 115 -12 55 -24 110 -26 124 -3 13 -14 61 -24 106 -11 45 -22 97 -26 116
-3 18 -7 38 -8 43 -1 6 -6 26 -10 45 -4 19 -16 71 -26 115 -10 44 -21 92 -24
108 -3 15 -8 37 -12 50 -6 20 -5 21 11 7 9 -8 25 -19 36 -25z m2982 -77 c-30
-140 -27 -126 -53 -244 -12 -55 -24 -110 -26 -124 -3 -14 -11 -52 -19 -85 -13
-54 -39 -172 -51 -234 -3 -12 -12 -53 -20 -90 -9 -36 -18 -77 -21 -91 -6 -37
-92 -431 -100 -460 -3 -14 -8 -34 -10 -45 -3 -18 -14 -68 -73 -335 -12 -52
-23 -105 -26 -118 -3 -13 -16 -76 -30 -140 -14 -64 -27 -124 -29 -133 -2 -8
-26 -121 -55 -250 -28 -129 -54 -245 -56 -259 -3 -14 -10 -45 -15 -70 -6 -25
-13 -56 -15 -70 -3 -14 -11 -53 -19 -86 -8 -34 -16 -74 -19 -88 -3 -14 -7 -34
-10 -44 -3 -9 -7 -28 -10 -42 -3 -14 -11 -54 -18 -90 -11 -57 -13 -61 -19 -35
-3 17 -16 66 -28 110 -12 44 -24 87 -26 95 -2 8 -13 50 -24 92 -12 43 -30 113
-41 155 -12 43 -25 92 -31 109 -5 17 -11 41 -14 52 -3 20 -13 56 -70 267 -19
67 -35 131 -40 158 -2 10 -8 32 -14 50 -12 37 -28 97 -70 257 -17 63 -49 185
-72 270 -22 85 -43 162 -45 170 -2 8 -16 64 -32 124 l-29 109 126 211 c70 116
162 270 205 341 l79 130 304 195 c231 148 485 313 539 349 0 1 -10 -50 -23
-111z"/>
</g>
</svg>
